<?xml version="1.0" standalone="no"?>
<!DOCTYPE svg PUBLIC "-//W3C//DTD SVG 20010904//EN"
 "http://www.w3.org/TR/2001/REC-SVG-20010904/DTD/svg10.dtd">
<svg version="1.0" xmlns="http://www.w3.org/2000/svg"
 width="96.000000pt" height="96.000000pt" viewBox="0 0 96.000000 96.000000"
 preserveAspectRatio="xMidYMid meet">
<metadata>
Created by potrace 1.16, written by Peter Selinger 2001-2019
</metadata>
<g transform="translate(0.000000,96.000000) scale(0.100000,-0.100000)"
fill="#000000" stroke="none">
<path d="M344 821 c-21 -13 -60 -68 -125 -177 l-94 -159 -3 -182 -3 -183 150
0 151 0 0 61 c0 60 0 60 38 76 20 8 53 28 73 44 34 27 42 28 145 31 108 3 109
3 122 31 18 37 1 87 -39 122 -29 24 -36 25 -154 25 -103 0 -124 3 -129 16 -16
42 -11 44 108 44 108 0 116 1 145 26 17 14 36 43 42 65 7 21 16 39 21 39 4 0
17 9 28 20 15 15 20 33 20 70 l0 50 -232 0 c-211 0 -236 -2 -264 -19z m426
-50 c0 -17 -32 -21 -164 -21 -133 0 -133 0 -144 -25 -7 -14 -12 -28 -12 -30 0
-3 57 -5 126 -5 113 0 125 -2 122 -17 -6 -32 -48 -43 -165 -43 -109 0 -113 -1
-129 -25 -14 -21 -14 -32 -4 -75 19 -77 24 -80 158 -80 122 0 164 -11 170 -43
3 -15 -8 -17 -107 -17 -79 0 -112 -4 -118 -13 -15 -24 -66 -57 -104 -67 l-39
-11 0 -59 0 -60 -90 0 -90 0 0 108 c0 59 4 122 10 140 11 41 163 303 188 324
9 9 26 18 37 21 37 9 355 7 355 -2z"/>
</g>
</svg>
