<?xml version="1.0"?>
<svg xmlns="http://www.w3.org/2000/svg" viewBox="0 0 64 64" width="512" height="512"><g id="Layer_9" data-name="Layer 9"><path d="M63,12A11,11,0,0,0,52,1H49a11,11,0,0,0-8.47,4H6a5,5,0,0,0-5,5V42a5,5,0,0,0,5,5H22v8H19a5,5,0,0,0-5,5v2a1,1,0,0,0,1,1H47a1,1,0,0,0,1-1V60a5,5,0,0,0-5-5H40V47H56a5,5,0,0,0,5-5V22a18.75,18.75,0,0,0,2-8.43ZM46,60v1H16V60a3,3,0,0,1,3-3H43A3,3,0,0,1,46,60Zm-8-5H24V47H38ZM56,45H6a3,3,0,0,1-3-3V10A3,3,0,0,1,6,7H39.21a10.81,10.81,0,0,0-.79,2H6a1,1,0,0,0-1,1V42a1,1,0,0,0,1,1H56a1,1,0,0,0,1-1V33.41a16.78,16.78,0,0,1,2-7.95V42A3,3,0,0,1,56,45Zm5-31.41A16.85,16.85,0,0,1,58.17,23,18.78,18.78,0,0,0,55,33.41V41H7V11H38c0,.24,0,.49,0,.74l-4.87,8.77a1,1,0,0,0,0,1A1,1,0,0,0,34,22h4v6a1,1,0,0,0,1,1h5v9h2V28a1,1,0,0,0-1-1H40V21a1,1,0,0,0-1-1H35.7l4.17-7.51A1,1,0,0,0,40,12a9,9,0,0,1,9-9h3a9,9,0,0,1,9,9Z"/><path d="M26.93,21.63a1,1,0,0,0-1.9.13l-2,7.82L21,19.79A1,1,0,0,0,20,19a1,1,0,0,0-1,.73L17.25,26H12v2h6a1,1,0,0,0,1-.73l.9-3.14L22,34.21A1,1,0,0,0,23,35h0a1,1,0,0,0,1-.76l2.25-9,.85,2.13A1,1,0,0,0,28,28h5V26H28.68Z"/></g></svg>
